<?xml version="1.0" encoding="UTF-8"?>
<svg id="Camada_1" data-name="Camada 1" xmlns="http://www.w3.org/2000/svg" viewBox="0 0 283.46 283.46">
  <defs>
    <style>
      .cls-1 {
        fill: #61749e;
      }

      .cls-2 {
        fill: #3e398d;
      }

      .cls-3 {
        fill: #92b5e1;
      }

      .cls-4 {
        fill: #63121c;
      }

      .cls-5 {
        fill: #63b985;
      }

      .cls-6 {
        fill: #5e4081;
      }

      .cls-7 {
        fill: #e94363;
      }

      .cls-8 {
        fill: #ef7909;
      }
    </style>
  </defs>
  <path class="cls-2" d="M66,48.26c0,11.57-9.43,20.96-21.06,20.96h-22.71V27.3h22.71c11.63,0,21.06,9.38,21.06,20.96Z"/>
  <path class="cls-3" d="M66,106.66c0,11.57-9.43,20.96-21.06,20.96h-22.71v-41.92h22.71c11.63,0,21.06,9.38,21.06,20.96Z"/>
  <path class="cls-6" d="M124.7,48.26c0,11.57-9.43,20.96-21.06,20.96h-22.71V27.3h22.71c11.63,0,21.06,9.38,21.06,20.96Z"/>
  <path class="cls-5" d="M124.7,165.06c0,11.57-9.43,20.96-21.06,20.96h-22.71v-41.92h22.71c11.63,0,21.06,9.38,21.06,20.96Z"/>
  <path class="cls-8" d="M66,163.65c0,11.57-9.43,20.96-21.06,20.96h-22.71v-41.92h22.71c11.63,0,21.06,9.38,21.06,20.96Z"/>
  <path class="cls-4" d="M66,222.06c0,11.57-9.43,20.96-21.06,20.96h-22.71v-41.92h22.71c11.63,0,21.06,9.38,21.06,20.96Z"/>
  <path class="cls-1" d="M124.7,106.66c0,11.57-9.43,20.96-21.06,20.96h-22.71v-41.92h22.71c11.63,0,21.06,9.38,21.06,20.96Z"/>
  <path class="cls-7" d="M124.7,220.65c0,11.57-9.43,20.96-21.06,20.96h-22.71v-41.92h22.71c11.63,0,21.06,9.38,21.06,20.96Z"/>
</svg>